<svg version="1.1" id="Layer_1" xmlns="http://www.w3.org/2000/svg" xmlns:xlink="http://www.w3.org/1999/xlink" x="0px" y="0px"
	 width="100%" viewBox="0 0 172 150" enable-background="new 0 0 172 150" xml:space="preserve">
<path fill="#FEFEFE" opacity="1.000000" stroke="none" 
	d="
M96.000000,151.000000 
	C64.000000,151.000000 32.500008,151.000000 1.000009,151.000000 
	C1.000006,101.000008 1.000006,51.000019 1.000003,1.000022 
	C58.333317,1.000015 115.666634,1.000015 172.999969,1.000007 
	C172.999969,50.999981 172.999969,100.999962 172.999985,150.999969 
	C147.500000,151.000000 122.000000,151.000000 96.000000,151.000000 
M100.706360,111.409943 
	C99.350525,110.692818 97.998833,109.376350 96.638100,109.366936 
	C91.877579,109.334000 87.092819,109.564560 82.362648,110.097717 
	C80.643097,110.291534 77.613754,111.695343 77.653282,112.410477 
	C77.811707,115.276260 77.572128,119.109749 82.299454,118.987167 
	C87.413567,118.854553 92.540459,118.880196 97.632294,118.470459 
	C98.823807,118.374580 99.896545,116.802727 101.857224,115.883232 
	C112.016609,115.341644 119.084335,110.835159 122.030930,100.623955 
	C122.346359,99.530869 124.388191,98.935974 126.407921,97.992317 
	C131.968216,92.321877 131.586914,76.133118 125.841614,69.109657 
	C125.639618,61.304005 123.859619,54.017998 118.847603,47.788040 
	C108.029579,34.341156 93.251556,33.983727 78.398270,36.842545 
	C62.749016,39.854568 54.802799,51.659039 53.248371,70.547020 
	C51.948692,73.044655 49.999176,75.422089 49.509445,78.069557 
	C48.858341,81.589417 49.314011,85.320015 49.348686,88.959549 
	C49.438755,98.411674 55.230450,101.725891 64.643898,96.698425 
	C64.601570,88.403709 64.559242,80.108986 64.251419,71.238213 
	C63.125278,70.831512 61.999138,70.424812 60.615711,69.146500 
	C61.082062,53.021786 69.575394,43.776203 85.456299,42.286537 
	C109.693558,40.013027 120.209969,54.355103 118.349876,70.988510 
	C117.572548,71.099586 116.795219,71.210663 115.344170,71.763397 
	C115.529640,80.218224 115.715111,88.673050 116.083946,97.673401 
	C116.416260,97.841537 116.748573,98.009674 117.510567,98.717316 
	C117.997314,99.410385 119.005394,100.205887 118.892365,100.781113 
	C117.273666,109.019890 106.605988,115.134232 100.706360,111.409943 
M150.244812,105.709785 
	C149.810501,107.057831 149.376175,108.405884 148.941864,109.753929 
	C165.478241,92.936005 160.780884,42.930748 141.720566,31.406958 
	C158.227951,54.444504 162.376816,78.854599 150.244812,105.709785 
M42.280647,123.218002 
	C40.481998,121.436226 38.683346,119.654442 36.884697,117.872665 
	C42.219116,131.505905 72.705429,147.924286 83.030762,143.374268 
	C67.578629,140.859741 53.952267,134.719330 42.280647,123.218002 
M31.898502,37.356819 
	C30.761410,39.400963 29.624317,41.445103 28.487225,43.489246 
	C29.008066,43.952335 29.528910,44.415424 30.049751,44.878513 
	C39.216164,28.391325 52.947800,17.387817 69.977448,10.315097 
	C53.811600,14.128384 41.732670,23.607384 31.898502,37.356819 
M90.642937,77.114891 
	C92.087082,76.466476 93.531227,75.818054 94.975365,75.169632 
	C94.448883,76.812531 94.230125,78.654327 93.326004,80.053146 
	C91.857956,82.324425 89.940956,84.305519 88.213470,86.409111 
	C88.546478,86.854263 88.879486,87.299416 89.212494,87.744568 
	C92.459709,87.564240 95.706924,87.383911 98.954140,87.203583 
	C98.947762,86.650467 98.941383,86.097359 98.935005,85.544250 
	C97.604767,84.952484 96.274529,84.360718 94.402832,83.528084 
	C97.229706,80.337975 100.516457,77.329994 97.221512,73.443802 
	C96.261978,72.312088 93.388176,71.705299 92.055550,72.313087 
	C90.849564,72.863129 90.548668,75.397644 90.642937,77.114891 
M127.207916,131.822037 
	C117.722740,135.945038 108.237564,140.068024 98.752388,144.191025 
	C111.598305,143.095627 123.032242,138.671295 132.830902,130.399521 
	C132.606308,129.944550 132.381714,129.489578 132.157120,129.034607 
	C130.709702,129.834717 129.262299,130.634842 127.207916,131.822037 
M22.028858,60.934074 
	C19.412874,72.471359 19.260307,83.843849 23.954739,96.196365 
	C23.954739,82.784874 23.954739,70.715622 23.954739,57.702194 
	C23.011927,59.004948 22.582411,59.598438 22.028858,60.934074 
M107.502533,87.454720 
	C108.795403,85.863380 110.088272,84.272049 111.381142,82.680710 
	C110.921928,82.665314 110.462715,82.649925 110.003510,82.634529 
	C109.520424,79.149841 109.037346,75.665154 108.542519,72.187477 
	C104.750549,73.223740 100.436867,79.639526 100.589249,82.544006 
	C103.151604,84.368279 105.013275,85.693710 107.502533,87.454720 
M101.339256,7.200882 
	C99.736694,7.200882 98.134132,7.200882 96.531570,7.200882 
	C102.369560,9.796076 108.384819,10.858914 113.987640,13.000669 
	C119.673355,15.174112 124.951920,18.412664 130.408798,21.184748 
	C130.605591,20.756676 130.802368,20.328604 130.999161,19.900532 
	C122.659790,12.950742 112.813347,9.277706 101.339256,7.200882 
M73.217751,82.597412 
	C72.791389,84.087639 72.365028,85.577858 71.938667,87.068085 
	C72.490845,87.268837 73.043030,87.469589 73.595207,87.670341 
	C76.542274,83.050262 78.171776,77.889816 79.177643,72.079987 
	C75.743645,72.079987 72.879135,72.079987 70.014618,72.079987 
	C69.853645,72.639526 69.692665,73.199066 69.531685,73.758598 
	C71.570374,74.339195 73.609062,74.919785 75.822960,75.550278 
	C75.094482,77.596970 74.326942,79.753387 73.217751,82.597412 
M41.420681,74.667412 
	C39.997429,76.078331 38.000324,77.289139 37.407356,78.989586 
	C37.135048,79.770470 39.437229,82.209854 40.910767,82.592545 
	C42.042599,82.886482 44.467323,81.452248 44.969833,80.231827 
	C45.966591,77.811058 45.498009,75.293854 41.420681,74.667412 
M79.441666,86.600517 
	C79.536880,87.447273 79.632103,88.294029 79.727318,89.140785 
	C80.450951,88.605148 81.569473,88.218071 81.835732,87.510368 
	C83.961617,81.859657 85.926117,76.148232 88.032974,70.192787 
	C84.850967,70.995255 84.850967,70.995255 79.441666,86.600517 
M144.477875,73.793915 
	C140.979752,74.227211 139.240265,76.206421 140.603439,79.526070 
	C141.116302,80.774994 143.396332,82.079689 144.766144,81.976089 
	C146.143280,81.871925 148.614517,79.784897 148.452362,79.028656 
	C148.052475,77.163803 146.417725,75.563744 144.477875,73.793915 
M131.808441,41.830200 
	C133.607773,40.465652 135.407089,39.101105 137.206406,37.736557 
	C136.602066,38.275127 135.997711,38.813694 135.393356,39.352264 
	C134.071350,37.543850 132.749344,35.735435 131.427322,33.927021 
	C132.412704,34.353714 133.398071,34.780411 134.383453,35.207104 
	C132.699936,36.507881 131.016418,37.808655 129.332901,39.109428 
	C128.917328,38.582336 128.501770,38.055241 128.086197,37.528149 
	C129.185989,38.734425 130.285767,39.940704 131.808441,41.830200 
M27.459919,103.013908 
	C28.025896,104.110985 28.591875,105.208054 29.157852,106.305130 
	C28.570423,105.581230 27.982996,104.857323 27.395569,104.133415 
	C29.221224,102.887497 31.046879,101.641571 32.872536,100.395645 
	C31.947487,101.976601 31.022440,103.557556 30.097393,105.138519 
	C29.401651,102.898697 28.705910,100.658882 28.010170,98.419067 
	C28.497562,98.005066 28.984957,97.591057 29.472349,97.177055 
	C27.999840,98.765076 26.527332,100.353096 24.876425,102.133507 
	C25.545815,102.386459 26.117746,102.602585 27.459919,103.013908 
M77.854240,9.820673 
	C79.544014,9.901340 81.255013,10.131865 82.900345,9.898809 
	C83.143158,9.864416 83.543716,7.342554 83.019638,6.503545 
	C82.490875,5.657032 80.255402,4.788781 79.898407,5.126245 
	C78.816254,6.149191 78.281601,7.751323 77.854240,9.820673 
M140.556961,114.919586 
	C139.474350,116.852699 138.391739,118.785812 137.510986,120.358498 
	C139.166168,121.305130 140.941742,122.320633 142.391449,123.149757 
	C143.337769,121.610794 144.481277,119.751122 145.366943,118.310783 
	C143.998001,117.344376 142.559662,116.328957 140.556961,114.919586 
M30.794455,48.898331 
	C28.901749,48.129169 27.009043,47.360004 25.403954,46.707726 
	C24.524429,48.170506 23.440769,49.972797 22.625299,51.329048 
	C24.343149,52.408802 26.160860,53.551327 27.246532,54.233727 
	C28.539871,52.611927 29.752731,51.091049 30.794455,48.898331 
z"/>
<path fill="#363E58" opacity="1.000000" stroke="none" 
	d="
M119.134094,70.857651 
	C120.209969,54.355103 109.693558,40.013027 85.456299,42.286537 
	C69.575394,43.776203 61.082062,53.021786 60.309330,69.596939 
	C57.942673,70.116760 55.882393,70.186134 53.822117,70.255508 
	C54.802799,51.659039 62.749016,39.854568 78.398270,36.842545 
	C93.251556,33.983727 108.029579,34.341156 118.847603,47.788040 
	C123.859619,54.017998 125.639618,61.304005 125.477539,69.740097 
	C123.120338,70.532913 121.127220,70.695282 119.134094,70.857651 
z"/>
<path fill="#C74646" opacity="1.000000" stroke="none" 
	d="
M53.535244,70.401260 
	C55.882393,70.186134 57.942673,70.116760 60.437973,70.032745 
	C61.999138,70.424812 63.125278,70.831512 64.243668,71.706650 
	C64.107254,72.449577 63.999050,72.731926 63.481258,73.012482 
	C61.482552,73.119812 59.913887,73.236771 57.990101,73.380203 
	C57.990101,79.340820 58.249428,84.786781 57.911263,90.195389 
	C57.620224,94.850212 59.363911,96.682816 63.945656,96.332947 
	C64.007690,96.921623 64.028885,97.157463 64.050072,97.393311 
	C55.230450,101.725891 49.438755,98.411674 49.348686,88.959549 
	C49.314011,85.320015 48.858341,81.589417 49.509445,78.069557 
	C49.999176,75.422089 51.948692,73.044655 53.535244,70.401260 
z"/>
<path fill="#D85350" opacity="1.000000" stroke="none" 
	d="
M150.423950,105.371429 
	C162.376816,78.854599 158.227951,54.444504 141.720566,31.406958 
	C160.780884,42.930748 165.478241,92.936005 148.941864,109.753929 
	C149.376175,108.405884 149.810501,107.057831 150.423950,105.371429 
z"/>
<path fill="#CF3A37" opacity="1.000000" stroke="none" 
	d="
M118.741989,70.923080 
	C121.127220,70.695282 123.120338,70.532913 125.430550,70.164780 
	C131.586914,76.133118 131.968216,92.321877 125.605392,98.057465 
	C122.228874,98.141006 119.654877,98.159409 117.080887,98.177811 
	C116.748573,98.009674 116.416260,97.841537 116.037521,97.013985 
	C116.030441,95.577164 116.069771,94.799767 116.409378,94.186920 
	C120.554489,96.546898 122.730034,95.630814 122.943726,91.444534 
	C123.164124,87.126808 123.077888,82.787491 122.979515,78.460945 
	C122.856369,73.044769 121.488518,72.199890 116.073959,73.655037 
	C116.031128,72.655937 116.024506,71.988838 116.017883,71.321739 
	C116.795219,71.210663 117.572548,71.099586 118.741989,70.923080 
z"/>
<path fill="#E1E6E7" opacity="1.000000" stroke="none" 
	d="
M101.023933,115.909935 
	C99.896545,116.802727 98.823807,118.374580 97.632294,118.470459 
	C92.540459,118.880196 87.413567,118.854553 82.299454,118.987167 
	C77.572128,119.109749 77.811707,115.276260 77.653282,112.410477 
	C77.613754,111.695343 80.643097,110.291534 82.362648,110.097717 
	C87.092819,109.564560 91.877579,109.334000 96.638100,109.366936 
	C97.998833,109.376350 99.350525,110.692818 100.849846,112.121910 
	C101.003532,113.859230 101.013733,114.884583 101.023933,115.909935 
z"/>
<path fill="#D85755" opacity="1.000000" stroke="none" 
	d="
M42.519951,123.482193 
	C53.952267,134.719330 67.578629,140.859741 83.030762,143.374268 
	C72.705429,147.924286 42.219116,131.505905 36.884697,117.872665 
	C38.683346,119.654442 40.481998,121.436226 42.519951,123.482193 
z"/>
<path fill="#D7524F" opacity="1.000000" stroke="none" 
	d="
M32.078888,37.052338 
	C41.732670,23.607384 53.811600,14.128384 69.977448,10.315097 
	C52.947800,17.387817 39.216164,28.391325 30.049751,44.878513 
	C29.528910,44.415424 29.008066,43.952335 28.487225,43.489246 
	C29.624317,41.445103 30.761410,39.400963 32.078888,37.052338 
z"/>
<path fill="#474E66" opacity="1.000000" stroke="none" 
	d="
M90.245811,77.086014 
	C90.548668,75.397644 90.849564,72.863129 92.055550,72.313087 
	C93.388176,71.705299 96.261978,72.312088 97.221512,73.443802 
	C100.516457,77.329994 97.229706,80.337975 94.402832,83.528084 
	C96.274529,84.360718 97.604767,84.952484 98.935005,85.544250 
	C98.941383,86.097359 98.947762,86.650467 98.954140,87.203583 
	C95.706924,87.383911 92.459709,87.564240 89.212494,87.744568 
	C88.879486,87.299416 88.546478,86.854263 88.213470,86.409111 
	C89.940956,84.305519 91.857956,82.324425 93.326004,80.053146 
	C94.230125,78.654327 94.448883,76.812531 94.975372,75.169632 
	C93.531227,75.818054 92.087082,76.466476 90.245811,77.086014 
z"/>
<path fill="#D95855" opacity="1.000000" stroke="none" 
	d="
M127.511398,131.628510 
	C129.262299,130.634842 130.709702,129.834717 132.157120,129.034607 
	C132.381714,129.489578 132.606308,129.944550 132.830902,130.399521 
	C123.032242,138.671295 111.598305,143.095627 98.752388,144.191025 
	C108.237564,140.068024 117.722740,135.945038 127.511398,131.628510 
z"/>
<path fill="#D95856" opacity="1.000000" stroke="none" 
	d="
M22.090878,60.563004 
	C22.582411,59.598438 23.011927,59.004948 23.954739,57.702194 
	C23.954739,70.715622 23.954739,82.784874 23.954739,96.196365 
	C19.260307,83.843849 19.412874,72.471359 22.090878,60.563004 
z"/>
<path fill="#424961" opacity="1.000000" stroke="none" 
	d="
M107.188744,87.236923 
	C105.013275,85.693710 103.151604,84.368279 100.589249,82.544006 
	C100.436867,79.639526 104.750549,73.223740 108.548393,72.183968 
	C109.037346,75.665154 109.520424,79.149841 110.003510,82.634529 
	C110.462715,82.649925 110.921928,82.665314 111.381142,82.680710 
	C110.088272,84.272049 108.795403,85.863380 107.188744,87.236923 
z"/>
<path fill="#D85654" opacity="1.000000" stroke="none" 
	d="
M101.748703,7.281998 
	C112.813347,9.277706 122.659790,12.950742 130.999161,19.900532 
	C130.802368,20.328604 130.605591,20.756676 130.408798,21.184748 
	C124.951920,18.412664 119.673355,15.174112 113.987640,13.000669 
	C108.384819,10.858914 102.369560,9.796076 96.531570,7.200882 
	C98.134132,7.200882 99.736694,7.200882 101.748703,7.281998 
z"/>
<path fill="#494D64" opacity="1.000000" stroke="none" 
	d="
M101.440582,115.896584 
	C101.013733,114.884583 101.003532,113.859230 101.004913,112.449432 
	C106.605988,115.134232 117.273666,109.019890 118.892365,100.781113 
	C119.005394,100.205887 117.997314,99.410385 117.295731,98.447563 
	C119.654877,98.159409 122.228874,98.141006 125.216011,98.116287 
	C124.388191,98.935974 122.346359,99.530869 122.030930,100.623955 
	C119.084335,110.835159 112.016609,115.341644 101.440582,115.896584 
z"/>
<path fill="#404860" opacity="1.000000" stroke="none" 
	d="
M73.388580,82.253616 
	C74.326942,79.753387 75.094482,77.596970 75.822960,75.550278 
	C73.609062,74.919785 71.570374,74.339195 69.531685,73.758598 
	C69.692665,73.199066 69.853645,72.639526 70.014618,72.079987 
	C72.879135,72.079987 75.743645,72.079987 79.177643,72.079987 
	C78.171776,77.889816 76.542274,83.050262 73.595207,87.670341 
	C73.043030,87.469589 72.490845,87.268837 71.938667,87.068085 
	C72.365028,85.577858 72.791389,84.087639 73.388580,82.253616 
z"/>
<path fill="#DA5C5A" opacity="1.000000" stroke="none" 
	d="
M41.775349,74.680313 
	C45.498009,75.293854 45.966591,77.811058 44.969833,80.231827 
	C44.467323,81.452248 42.042599,82.886482 40.910767,82.592545 
	C39.437229,82.209854 37.135048,79.770470 37.407356,78.989586 
	C38.000324,77.289139 39.997429,76.078331 41.775349,74.680313 
z"/>
<path fill="#414961" opacity="1.000000" stroke="none" 
	d="
M79.591583,86.265900 
	C84.850967,70.995255 84.850967,70.995255 88.032974,70.192787 
	C85.926117,76.148232 83.961617,81.859657 81.835732,87.510368 
	C81.569473,88.218071 80.450951,88.605148 79.727318,89.140785 
	C79.632103,88.294029 79.536880,87.447273 79.591583,86.265900 
z"/>
<path fill="#D95856" opacity="1.000000" stroke="none" 
	d="
M144.878647,73.825577 
	C146.417725,75.563744 148.052475,77.163803 148.452362,79.028656 
	C148.614517,79.784897 146.143280,81.871925 144.766144,81.976089 
	C143.396332,82.079689 141.116302,80.774994 140.603439,79.526070 
	C139.240265,76.206421 140.979752,74.227211 144.878647,73.825577 
z"/>
<path fill="#DD6B69" opacity="1.000000" stroke="none" 
	d="
M131.596985,41.488594 
	C130.285767,39.940704 129.185989,38.734425 128.086197,37.528149 
	C128.501770,38.055241 128.917328,38.582336 129.332901,39.109428 
	C131.016418,37.808655 132.699936,36.507881 134.383453,35.207104 
	C133.398071,34.780411 132.412704,34.353714 131.427322,33.927021 
	C132.749344,35.735435 134.071350,37.543850 135.393356,39.352264 
	C135.997711,38.813694 136.602066,38.275127 137.206406,37.736557 
	C135.407089,39.101105 133.607773,40.465652 131.596985,41.488594 
z"/>
<path fill="#DD6A68" opacity="1.000000" stroke="none" 
	d="
M27.074799,102.916313 
	C26.117746,102.602585 25.545815,102.386459 24.876425,102.133507 
	C26.527332,100.353096 27.999840,98.765076 29.472349,97.177055 
	C28.984957,97.591057 28.497562,98.005066 28.010170,98.419067 
	C28.705910,100.658882 29.401651,102.898697 30.097393,105.138519 
	C31.022440,103.557556 31.947487,101.976601 32.872536,100.395645 
	C31.046879,101.641571 29.221224,102.887497 27.395569,104.133415 
	C27.982996,104.857323 28.570423,105.581230 29.157852,106.305130 
	C28.591875,105.208054 28.025896,104.110985 27.074799,102.916313 
z"/>
<path fill="#DA5D5A" opacity="1.000000" stroke="none" 
	d="
M77.693947,9.474247 
	C78.281601,7.751323 78.816254,6.149191 79.898407,5.126245 
	C80.255402,4.788781 82.490875,5.657032 83.019638,6.503545 
	C83.543716,7.342554 83.143158,9.864416 82.900345,9.898809 
	C81.255013,10.131865 79.544014,9.901340 77.693947,9.474247 
z"/>
<path fill="#D85451" opacity="1.000000" stroke="none" 
	d="
M140.839142,115.116562 
	C142.559662,116.328957 143.998001,117.344376 145.366943,118.310783 
	C144.481277,119.751122 143.337769,121.610794 142.391449,123.149757 
	C140.941742,122.320633 139.166168,121.305130 137.510986,120.358498 
	C138.391739,118.785812 139.474350,116.852699 140.839142,115.116562 
z"/>
<path fill="#D64E4B" opacity="1.000000" stroke="none" 
	d="
M30.880024,49.234249 
	C29.752731,51.091049 28.539871,52.611927 27.246532,54.233727 
	C26.160860,53.551327 24.343149,52.408802 22.625299,51.329048 
	C23.440769,49.972797 24.524429,48.170506 25.403954,46.707726 
	C27.009043,47.360004 28.901749,48.129169 30.880024,49.234249 
z"/>
<path fill="#806270" opacity="1.000000" stroke="none" 
	d="
M116.109108,94.022362 
	C116.069771,94.799767 116.030441,95.577164 115.945847,96.741226 
	C115.715111,88.673050 115.529640,80.218224 115.681030,71.542572 
	C116.024506,71.988838 116.031128,72.655937 116.032410,74.123344 
	C116.054428,81.289886 116.081764,87.656128 116.109108,94.022362 
z"/>
<path fill="#806371" opacity="1.000000" stroke="none" 
	d="
M63.911304,73.022110 
	C63.999050,72.731926 64.107254,72.449577 64.376419,71.994675 
	C64.559242,80.108986 64.601570,88.403709 64.346985,97.045868 
	C64.028885,97.157463 64.007690,96.921623 63.982201,95.867378 
	C63.955696,87.706688 63.933502,80.364395 63.911304,73.022110 
z"/>
<path fill="#DD4847" opacity="1.000000" stroke="none" 
	d="
M63.481258,73.012482 
	C63.933502,80.364395 63.955696,87.706688 63.941349,95.514542 
	C59.363911,96.682816 57.620224,94.850212 57.911263,90.195389 
	C58.249428,84.786781 57.990101,79.340820 57.990101,73.380203 
	C59.913887,73.236771 61.482552,73.119812 63.481258,73.012482 
z"/>
<path fill="#DD4847" opacity="1.000000" stroke="none" 
	d="
M116.409378,94.186920 
	C116.081764,87.656128 116.054428,81.289886 116.068626,74.455345 
	C121.488518,72.199890 122.856369,73.044769 122.979515,78.460945 
	C123.077888,82.787491 123.164124,87.126808 122.943726,91.444534 
	C122.730034,95.630814 120.554489,96.546898 116.409378,94.186920 
z"/>
</svg>