<svg version="1.1" id="Layer_1" xmlns="http://www.w3.org/2000/svg" xmlns:xlink="http://www.w3.org/1999/xlink" x="0px" y="0px"
	 width="100%" viewBox="0 0 172 152" enable-background="new 0 0 172 152" xml:space="preserve">
<path fill="#FEFEFE" opacity="1.000000" stroke="none" 
	d="
M1.000000,64.000000 
	C1.000000,42.666672 1.000000,21.833345 1.000000,1.000014 
	C58.333309,1.000009 115.666618,1.000009 172.999939,1.000005 
	C172.999969,51.666626 172.999969,102.333252 172.999985,152.999908 
	C115.666725,152.999939 58.333443,152.999939 1.000083,152.999969 
	C1.000000,123.500000 1.000000,94.000000 1.000000,64.000000 
M60.527634,138.416809 
	C68.409256,142.582321 76.606674,145.568069 85.798073,144.942871 
	C77.198692,141.961990 68.599319,138.981110 59.587383,135.479355 
	C52.735664,130.087830 45.883945,124.696304 39.032227,119.304779 
	C44.090187,127.761002 51.319107,133.699982 60.527634,138.416809 
M90.954117,96.008530 
	C91.571350,97.288612 92.315834,98.523788 92.785980,99.855789 
	C97.113045,112.115089 109.611771,117.754829 120.502563,115.991066 
	C132.867203,113.988617 142.964844,100.924347 143.084091,90.188179 
	C142.625809,87.872231 142.167542,85.556290 141.712875,83.258514 
	C140.271286,82.813454 138.781021,82.353378 137.115280,80.991684 
	C137.176224,74.532906 137.589066,68.094208 132.099243,63.053631 
	C124.664215,56.227028 110.149429,55.595428 102.195847,61.984341 
	C95.954292,66.998024 94.945053,73.891350 94.320457,81.617142 
	C92.917938,81.737846 91.515427,81.858551 89.493797,82.032532 
	C90.014786,86.689102 90.494415,90.976097 90.954117,96.008530 
M47.050816,69.675919 
	C47.031479,75.480225 46.954399,81.285080 47.010513,87.088661 
	C47.058002,92.000381 49.027348,93.972656 53.954590,94.003342 
	C63.407528,94.062202 72.865211,93.859856 82.312363,94.101143 
	C86.069145,94.197090 87.286819,92.990051 87.081566,89.282173 
	C86.911835,86.215805 86.350899,81.524742 87.991875,80.322540 
	C92.381767,77.106468 90.975822,72.765625 92.510208,68.518951 
	C93.935814,66.035225 95.361420,63.551498 97.439400,60.802197 
	C106.862564,51.628773 118.079391,53.095886 130.003403,55.856480 
	C130.003403,51.967026 130.102081,48.514309 129.979477,45.069469 
	C129.809799,40.301830 127.653519,38.053341 122.845619,38.037991 
	C99.918243,37.964802 76.990349,37.961842 54.063011,38.041027 
	C49.308250,38.057449 47.130901,40.360306 47.025051,45.164162 
	C46.907974,50.477699 47.017582,55.796227 46.867908,61.782402 
	C46.959644,64.090202 47.051380,66.398003 47.050816,69.675919 
M153.417084,110.894363 
	C153.804398,110.600365 154.335175,110.388870 154.558487,110.000557 
	C167.899399,86.802109 164.997894,53.624840 147.798035,32.955204 
	C147.277512,32.329674 146.317902,32.069530 145.563004,31.639038 
	C145.550476,33.688198 146.306519,35.041794 147.193802,36.303070 
	C162.727036,58.383511 164.584900,81.706703 153.668869,106.246498 
	C153.057831,107.620140 153.016037,109.247002 153.417084,110.894363 
M35.698315,36.245232 
	C34.189823,38.804604 32.681335,41.363976 31.172848,43.923347 
	C31.766037,44.405998 32.359226,44.888653 32.952412,45.371304 
	C42.120907,28.489820 56.177631,17.477327 73.561661,10.407744 
	C57.737720,13.995476 45.699604,23.034460 35.698315,36.245232 
M107.634422,144.931732 
	C120.046211,142.146332 132.500595,135.806854 135.080612,131.332962 
	C124.262230,135.849136 113.004478,140.548737 101.746727,145.248322 
	C101.767349,145.425446 101.787971,145.602570 101.808594,145.779694 
	C103.485626,145.534332 105.162659,145.288986 107.634422,144.931732 
M23.061865,72.683037 
	C22.661327,84.806503 24.070791,92.646484 26.766697,95.189926 
	C26.766697,83.463005 26.766697,71.371750 26.766697,59.280502 
	C26.196589,59.209988 25.626480,59.139477 25.056370,59.068966 
	C24.404739,63.292812 23.753107,67.516655 23.061865,72.683037 
M113.917305,12.336029 
	C120.498894,15.349976 127.080490,18.363922 134.366776,21.700571 
	C128.893997,13.983728 105.702698,5.310402 98.671448,8.638085 
	C104.027092,9.927419 108.583992,11.024459 113.917305,12.336029 
M147.580139,83.057480 
	C151.072464,82.682846 152.807892,80.674667 151.675613,77.373077 
	C151.224228,76.056892 148.960892,74.395836 147.736633,74.553642 
	C146.178833,74.754456 143.597992,76.739105 143.679459,77.781052 
	C143.820709,79.587746 145.667831,81.261070 147.580139,83.057480 
M76.388710,100.801628 
	C77.491173,102.530334 78.312263,104.629257 79.843872,105.793312 
	C80.404015,106.219025 83.399513,104.752922 83.922981,103.555069 
	C84.476112,102.289368 83.406860,100.314682 83.046310,98.649696 
	C80.924767,99.128677 78.803215,99.607658 76.388710,100.801628 
M27.628538,103.119995 
	C29.250362,104.277008 30.872189,105.434021 32.085793,106.299805 
	C33.575241,105.056923 35.195847,103.704590 36.628853,102.508804 
	C35.086216,101.084488 33.439034,99.563637 32.253250,98.468796 
	C30.566397,99.828735 28.913197,101.161537 27.628538,103.119995 
M148.717209,119.790932 
	C146.928543,118.472939 145.139862,117.154945 143.711273,116.102272 
	C142.435776,118.137421 141.356552,119.859406 140.516449,121.199875 
	C142.347488,122.264771 144.229019,123.359032 145.720657,124.226532 
	C146.507385,122.871452 147.289429,121.524422 148.717209,119.790932 
M34.860096,48.677780 
	C33.023266,47.942833 31.186436,47.207886 29.705133,46.615189 
	C28.707769,48.302128 27.688438,50.026222 26.895401,51.367561 
	C28.816263,52.465313 30.714272,53.550007 31.909643,54.233147 
	C33.055534,52.567005 34.135162,50.997200 34.860096,48.677780 
M134.631287,36.258877 
	C133.406067,36.821884 132.180832,37.384892 130.955612,37.947899 
	C131.923126,37.155247 132.890625,36.362598 133.858139,35.569946 
	C135.246796,37.185120 136.635468,38.800297 138.024139,40.415470 
	C136.540756,40.459801 135.057373,40.504128 133.573990,40.548454 
	C135.049057,38.964867 136.524124,37.381283 137.999191,35.797695 
	C137.502914,37.797764 137.006638,39.797829 136.510361,41.797897 
	C135.809402,39.362080 135.108444,36.926262 134.407501,34.490444 
	C134.645401,34.192101 134.883316,33.893757 135.121216,33.595413 
	C134.999100,34.229679 134.876968,34.863945 134.631287,36.258877 
M89.869530,7.259510 
	C88.263878,7.115082 86.600357,6.689492 85.088501,7.000714 
	C84.645546,7.091897 84.117470,9.541297 84.571175,10.426818 
	C85.013405,11.289949 87.311768,12.241550 87.660278,11.920873 
	C88.763359,10.905880 89.335419,9.313778 89.869530,7.259510 
M78.005508,126.187141 
	C79.036133,127.822548 80.066757,129.457947 81.097389,131.093353 
	C80.303780,130.009567 79.510178,128.925797 78.716576,127.842003 
	C80.587791,127.400490 82.459007,126.958977 84.330215,126.517464 
	C84.124527,127.057594 83.918839,127.597725 83.713150,128.137848 
	C82.542114,126.805260 81.371078,125.472679 80.282982,124.234467 
	C80.301880,124.213768 79.500862,125.091095 78.005508,126.187141 
z"/>
<path fill="#E2E7E8" opacity="1.000000" stroke="none" 
	d="
M47.028469,61.112583 
	C47.017582,55.796227 46.907974,50.477699 47.025051,45.164162 
	C47.130901,40.360306 49.308250,38.057449 54.063011,38.041027 
	C76.990349,37.961842 99.918243,37.964802 122.845619,38.037991 
	C127.653519,38.053341 129.809799,40.301830 129.979477,45.069469 
	C130.102081,48.514309 130.003403,51.967026 130.003403,55.856480 
	C118.079391,53.095886 106.862564,51.628773 96.659035,60.952698 
	C79.595268,61.106327 63.311871,61.109455 47.028469,61.112583 
M59.244183,44.378616 
	C55.348484,44.253101 53.033615,46.251461 53.445343,50.023075 
	C53.807232,53.338158 56.418812,54.509392 59.752537,54.087143 
	C61.203995,53.903305 62.713402,54.239536 64.190750,54.184742 
	C67.398361,54.065777 69.680016,52.110989 68.897789,49.186478 
	C68.381592,47.256561 65.728149,45.697460 63.730671,44.456974 
	C62.851242,43.910828 61.223557,44.569546 59.244183,44.378616 
z"/>
<path fill="#D13C39" opacity="1.000000" stroke="none" 
	d="
M137.290771,81.893295 
	C138.781021,82.353378 140.271286,82.813454 141.712875,83.258514 
	C142.167542,85.556290 142.625809,87.872231 142.655914,90.656113 
	C141.209152,92.955734 140.119263,94.751778 139.183273,96.624725 
	C131.474838,112.049492 110.455841,116.367073 98.905258,103.371529 
	C96.223206,100.353966 93.809433,97.097954 91.192169,93.623367 
	C91.130402,92.846344 91.148682,92.397614 91.304276,91.865334 
	C91.625496,91.453285 91.527824,91.213997 91.088364,90.620171 
	C91.499550,87.259361 88.918266,82.711372 95.389748,82.843094 
	C97.181419,82.880005 98.562714,82.854416 100.413345,82.897812 
	C111.606773,82.921219 122.330849,82.875626 133.437164,82.877174 
	C134.976517,82.580635 136.133652,82.236969 137.290771,81.893295 
M117.334679,96.854942 
	C115.786568,99.416611 114.366623,99.218765 112.502571,96.988945 
	C111.730583,96.065460 110.080223,95.876274 108.829323,95.353142 
	C108.586021,95.854012 108.342728,96.354881 108.099426,96.855743 
	C110.348129,99.374496 112.596832,101.893242 115.125481,104.725563 
	C119.085320,100.008156 122.638168,95.775620 126.191010,91.543076 
	C125.999969,91.141357 125.808937,90.739647 125.617897,90.337929 
	C124.517799,90.574387 123.104355,90.463593 122.380409,91.116875 
	C120.676590,92.654381 119.301842,94.556564 117.334679,96.854942 
z"/>
<path fill="#E4E8E8" opacity="1.000000" stroke="none" 
	d="
M91.981735,68.913055 
	C90.975822,72.765625 92.381767,77.106468 87.991875,80.322540 
	C86.350899,81.524742 86.911835,86.215805 87.081566,89.282173 
	C87.286819,92.990051 86.069145,94.197090 82.312363,94.101143 
	C72.865211,93.859856 63.407528,94.062202 53.954590,94.003342 
	C49.027348,93.972656 47.058002,92.000381 47.010513,87.088661 
	C46.954399,81.285080 47.031479,75.480225 47.555290,69.165329 
	C62.700420,68.740845 77.341080,68.826950 91.981735,68.913055 
z"/>
<path fill="#3F475F" opacity="1.000000" stroke="none" 
	d="
M92.245972,68.716003 
	C77.341080,68.826950 62.700420,68.740845 47.601440,68.680267 
	C47.051380,66.398003 46.959644,64.090202 46.948189,61.447495 
	C63.311871,61.109455 79.595268,61.106327 96.332848,61.085487 
	C95.361420,63.551498 93.935814,66.035225 92.245972,68.716003 
z"/>
<path fill="#363D56" opacity="1.000000" stroke="none" 
	d="
M137.203033,81.442490 
	C136.133652,82.236969 134.976517,82.580635 133.396072,82.607712 
	C132.933197,82.113281 132.893661,81.935455 132.888885,81.326889 
	C132.947632,79.904915 132.997925,78.913498 132.991470,77.922455 
	C132.943329,70.535385 129.478119,65.095367 123.595840,63.150551 
	C115.966377,60.628071 107.208023,62.597847 103.003166,67.618324 
	C99.455360,71.854309 99.856979,76.795731 100.084961,82.023720 
	C99.998383,82.469452 99.971191,82.649139 99.944000,82.828819 
	C98.562714,82.854416 97.181419,82.880005 95.433685,82.587822 
	C95.074867,81.925201 95.082497,81.580360 95.090134,81.235512 
	C94.945053,73.891350 95.954292,66.998024 102.195847,61.984341 
	C110.149429,55.595428 124.664215,56.227028 132.099243,63.053631 
	C137.589066,68.094208 137.176224,74.532906 137.203033,81.442490 
z"/>
<path fill="#D54848" opacity="1.000000" stroke="none" 
	d="
M91.272217,93.951660 
	C93.809433,97.097954 96.223206,100.353966 98.905258,103.371529 
	C110.455841,116.367073 131.474838,112.049492 139.183273,96.624725 
	C140.119263,94.751778 141.209152,92.955734 142.569916,91.059532 
	C142.964844,100.924347 132.867203,113.988617 120.502563,115.991066 
	C109.611771,117.754829 97.113045,112.115089 92.785980,99.855789 
	C92.315834,98.523788 91.571350,97.288612 91.017700,95.302567 
	C91.144936,94.381622 91.208580,94.166641 91.272217,93.951660 
z"/>
<path fill="#D85755" opacity="1.000000" stroke="none" 
	d="
M153.063187,110.825180 
	C153.016037,109.247002 153.057831,107.620140 153.668869,106.246498 
	C164.584900,81.706703 162.727036,58.383511 147.193802,36.303070 
	C146.306519,35.041794 145.550476,33.688198 145.563004,31.639038 
	C146.317902,32.069530 147.277512,32.329674 147.798035,32.955204 
	C164.997894,53.624840 167.899399,86.802109 154.558487,110.000557 
	C154.335175,110.388870 153.804398,110.600365 153.063187,110.825180 
z"/>
<path fill="#D85452" opacity="1.000000" stroke="none" 
	d="
M35.894730,35.941673 
	C45.699604,23.034460 57.737720,13.995476 73.561661,10.407744 
	C56.177631,17.477327 42.120907,28.489820 32.952412,45.371304 
	C32.359226,44.888653 31.766037,44.405998 31.172848,43.923347 
	C32.681335,41.363976 34.189823,38.804604 35.894730,35.941673 
z"/>
<path fill="#D95957" opacity="1.000000" stroke="none" 
	d="
M107.237053,144.987671 
	C105.162659,145.288986 103.485626,145.534332 101.808594,145.779694 
	C101.787971,145.602570 101.767349,145.425446 101.746727,145.248322 
	C113.004478,140.548737 124.262230,135.849136 135.080612,131.332962 
	C132.500595,135.806854 120.046211,142.146332 107.237053,144.987671 
z"/>
<path fill="#DA5F5D" opacity="1.000000" stroke="none" 
	d="
M23.081671,72.211769 
	C23.753107,67.516655 24.404739,63.292812 25.056370,59.068966 
	C25.626480,59.139477 26.196589,59.209988 26.766697,59.280502 
	C26.766697,71.371750 26.766697,83.463005 26.766697,95.189926 
	C24.070791,92.646484 22.661327,84.806503 23.081671,72.211769 
z"/>
<path fill="#D95A57" opacity="1.000000" stroke="none" 
	d="
M113.529099,12.228764 
	C108.583992,11.024459 104.027092,9.927419 98.671448,8.638085 
	C105.702698,5.310402 128.893997,13.983728 134.366776,21.700571 
	C127.080490,18.363922 120.498894,15.349976 113.529099,12.228764 
z"/>
<path fill="#D85552" opacity="1.000000" stroke="none" 
	d="
M59.999947,136.000214 
	C68.599319,138.981110 77.198692,141.961990 85.798073,144.942871 
	C76.606674,145.568069 68.409256,142.582321 60.264885,137.863663 
	C60.001408,136.873749 60.000675,136.436981 59.999947,136.000214 
z"/>
<path fill="#D95956" opacity="1.000000" stroke="none" 
	d="
M59.793663,135.739777 
	C60.000675,136.436981 60.001408,136.873749 60.006916,137.638062 
	C51.319107,133.699982 44.090187,127.761002 39.032227,119.304779 
	C45.883945,124.696304 52.735664,130.087830 59.793663,135.739777 
z"/>
<path fill="#DA5C5A" opacity="1.000000" stroke="none" 
	d="
M147.189850,83.023903 
	C145.667831,81.261070 143.820709,79.587746 143.679459,77.781052 
	C143.597992,76.739105 146.178833,74.754456 147.736633,74.553642 
	C148.960892,74.395836 151.224228,76.056892 151.675613,77.373077 
	C152.807892,80.674667 151.072464,82.682846 147.189850,83.023903 
z"/>
<path fill="#D75350" opacity="1.000000" stroke="none" 
	d="
M76.535187,100.444138 
	C78.803215,99.607658 80.924767,99.128677 83.046310,98.649696 
	C83.406860,100.314682 84.476112,102.289368 83.922981,103.555069 
	C83.399513,104.752922 80.404015,106.219025 79.843872,105.793312 
	C78.312263,104.629257 77.491173,102.530334 76.535187,100.444138 
z"/>
<path fill="#D95957" opacity="1.000000" stroke="none" 
	d="
M27.444267,102.807175 
	C28.913197,101.161537 30.566397,99.828735 32.253250,98.468796 
	C33.439034,99.563637 35.086216,101.084488 36.628853,102.508804 
	C35.195847,103.704590 33.575241,105.056923 32.085793,106.299805 
	C30.872189,105.434021 29.250362,104.277008 27.444267,102.807175 
z"/>
<path fill="#D85553" opacity="1.000000" stroke="none" 
	d="
M148.394348,119.984161 
	C147.289429,121.524422 146.507385,122.871452 145.720657,124.226532 
	C144.229019,123.359032 142.347488,122.264771 140.516449,121.199875 
	C141.356552,119.859406 142.435776,118.137421 143.711273,116.102272 
	C145.139862,117.154945 146.928543,118.472939 148.394348,119.984161 
z"/>
<path fill="#D85653" opacity="1.000000" stroke="none" 
	d="
M35.037445,49.052589 
	C34.135162,50.997200 33.055534,52.567005 31.909643,54.233147 
	C30.714272,53.550007 28.816263,52.465313 26.895401,51.367561 
	C27.688438,50.026222 28.707769,48.302128 29.705133,46.615189 
	C31.186436,47.207886 33.023266,47.942833 35.037445,49.052589 
z"/>
<path fill="#D7514F" opacity="1.000000" stroke="none" 
	d="
M134.693069,35.878548 
	C134.876968,34.863945 134.999100,34.229679 135.121216,33.595413 
	C134.883316,33.893757 134.645401,34.192101 134.407501,34.490444 
	C135.108444,36.926262 135.809402,39.362080 136.510361,41.797897 
	C137.006638,39.797829 137.502914,37.797764 137.999191,35.797695 
	C136.524124,37.381283 135.049057,38.964867 133.573990,40.548454 
	C135.057373,40.504128 136.540756,40.459801 138.024139,40.415470 
	C136.635468,38.800297 135.246796,37.185120 133.858139,35.569946 
	C132.890625,36.362598 131.923126,37.155247 130.955612,37.947899 
	C132.180832,37.384892 133.406067,36.821884 134.693069,35.878548 
z"/>
<path fill="#D64E4C" opacity="1.000000" stroke="none" 
	d="
M89.991196,7.602189 
	C89.335419,9.313778 88.763359,10.905880 87.660278,11.920873 
	C87.311768,12.241550 85.013405,11.289949 84.571175,10.426818 
	C84.117470,9.541297 84.645546,7.091897 85.088501,7.000714 
	C86.600357,6.689492 88.263878,7.115082 89.991196,7.602189 
z"/>
<path fill="#D74F4C" opacity="1.000000" stroke="none" 
	d="
M78.352676,126.077789 
	C79.500862,125.091095 80.301880,124.213768 80.282982,124.234467 
	C81.371078,125.472679 82.542114,126.805260 83.713150,128.137848 
	C83.918839,127.597725 84.124527,127.057594 84.330215,126.517464 
	C82.459007,126.958977 80.587791,127.400490 78.716576,127.842003 
	C79.510178,128.925797 80.303780,130.009567 81.097389,131.093353 
	C80.066757,129.457947 79.036133,127.822548 78.352676,126.077789 
z"/>
<path fill="#675769" opacity="1.000000" stroke="none" 
	d="
M91.192169,93.623367 
	C91.208580,94.166641 91.144936,94.381622 91.027672,94.929848 
	C90.494415,90.976097 90.014786,86.689102 89.493797,82.032532 
	C91.515427,81.858551 92.917938,81.737846 94.705292,81.426331 
	C95.082497,81.580360 95.074867,81.925201 95.023300,82.525322 
	C88.918266,82.711372 91.499550,87.259361 91.066528,90.841660 
	C91.104942,91.506882 91.166954,91.948883 91.166954,91.948883 
	C91.148682,92.397614 91.130402,92.846344 91.192169,93.623367 
z"/>
<path fill="#363E58" opacity="1.000000" stroke="none" 
	d="
M59.589890,44.529922 
	C61.223557,44.569546 62.851242,43.910828 63.730671,44.456974 
	C65.728149,45.697460 68.381592,47.256561 68.897789,49.186478 
	C69.680016,52.110989 67.398361,54.065777 64.190750,54.184742 
	C62.713402,54.239536 61.203995,53.903305 59.752537,54.087143 
	C56.418812,54.509392 53.807232,53.338158 53.445343,50.023075 
	C53.033615,46.251461 55.348484,44.253101 59.589890,44.529922 
z"/>
<path fill="#EBE7E8" opacity="1.000000" stroke="none" 
	d="
M117.564316,96.583069 
	C119.301842,94.556564 120.676590,92.654381 122.380409,91.116875 
	C123.104355,90.463593 124.517799,90.574387 125.617897,90.337929 
	C125.808937,90.739647 125.999969,91.141357 126.191010,91.543076 
	C122.638168,95.775620 119.085320,100.008156 115.125481,104.725563 
	C112.596832,101.893242 110.348129,99.374496 108.099426,96.855743 
	C108.342728,96.354881 108.586021,95.854012 108.829323,95.353142 
	C110.080223,95.876274 111.730583,96.065460 112.502571,96.988945 
	C114.366623,99.218765 115.786568,99.416611 117.564316,96.583069 
z"/>
<path fill="#664052" opacity="1.000000" stroke="none" 
	d="
M132.854141,81.757629 
	C132.893661,81.935455 132.933197,82.113281 133.013840,82.560577 
	C122.330849,82.875626 111.606773,82.921219 100.413345,82.897812 
	C99.971191,82.649139 99.998383,82.469452 100.542374,82.054405 
	C111.657501,81.798576 122.255821,81.778107 132.854141,81.757629 
z"/>
<path fill="#D54848" opacity="1.000000" stroke="none" 
	d="
M91.304276,91.865334 
	C91.166954,91.948883 91.104942,91.506882 91.126770,91.285400 
	C91.527824,91.213997 91.625496,91.453285 91.304276,91.865334 
z"/>
<path fill="#FAFAFB" opacity="1.000000" stroke="none" 
	d="
M132.888885,81.326889 
	C122.255821,81.778107 111.657501,81.798576 100.601761,81.788361 
	C99.856979,76.795731 99.455360,71.854309 103.003166,67.618324 
	C107.208023,62.597847 115.966377,60.628071 123.595840,63.150551 
	C129.478119,65.095367 132.943329,70.535385 132.991470,77.922455 
	C132.997925,78.913498 132.947632,79.904915 132.888885,81.326889 
z"/>
</svg>