<svg version="1.1" id="Layer_1" xmlns="http://www.w3.org/2000/svg" xmlns:xlink="http://www.w3.org/1999/xlink" x="0px" y="0px"
	 width="100%" viewBox="0 0 158 148" enable-background="new 0 0 158 148" xml:space="preserve">
<path fill="#FEFDFD" opacity="1.000000" stroke="none" 
	d="
M1.000000,59.000000 
	C1.000000,39.349003 1.000000,20.198004 1.000000,1.023502 
	C53.607937,1.023502 106.215889,1.023502 158.911926,1.023502 
	C158.911926,50.234142 158.911926,99.468498 158.911926,148.851425 
	C106.333649,148.851425 53.666878,148.851425 1.000000,148.851425 
	C1.000000,119.117821 1.000000,89.308907 1.000000,59.000000 
M45.027878,16.035488 
	C35.247864,22.551167 27.424341,30.708551 23.186049,41.913418 
	C29.506184,32.041698 37.690331,23.995604 47.707333,16.843451 
	C53.345348,14.063735 58.983360,11.284019 64.621376,8.504303 
	C64.391479,8.045148 64.161583,7.585992 63.931683,7.126837 
	C57.308609,8.793529 51.229961,11.721370 45.027878,16.035488 
M109.895622,66.254486 
	C113.050247,62.404434 116.204872,58.554386 119.551781,54.469666 
	C117.149002,52.432083 114.893303,50.519234 112.368019,48.377766 
	C109.871384,51.048538 107.517136,53.566994 104.505669,55.820385 
	C103.160233,54.881332 101.869225,53.849789 100.459473,53.020016 
	C95.616318,50.169361 90.877487,46.698299 84.827057,48.795860 
	C84.931053,47.336170 85.035049,45.876476 85.213737,43.368355 
	C91.497665,45.494469 97.209961,47.427177 103.258110,49.473522 
	C103.829140,48.767506 104.731453,47.651901 106.166145,45.878063 
	C100.986382,43.555481 96.202393,41.410366 91.106224,39.125267 
	C92.123665,33.676426 88.824013,32.992512 84.038429,33.017326 
	C79.257195,33.042114 75.460739,33.244106 76.760765,39.473934 
	C48.078056,47.785191 42.612637,74.183510 50.141701,91.425377 
	C58.081955,109.608879 79.825356,118.118713 98.833336,110.126274 
	C116.294540,102.784218 125.717812,81.765862 117.478539,64.993225 
	C116.689880,68.339500 115.901222,71.685776 115.072197,75.203331 
	C113.969765,75.396751 112.364037,75.678474 110.148857,75.822403 
	C109.934006,75.456764 109.516983,74.779724 109.532837,74.769424 
	C113.538231,72.168991 112.470551,69.543747 109.895622,66.254486 
M151.332916,77.413803 
	C149.031235,87.727478 146.729568,98.041161 144.427887,108.354836 
	C152.982712,93.722275 156.145813,77.961319 152.842911,61.148453 
	C149.896774,46.151596 141.475540,30.709019 135.324646,29.409029 
	C146.129028,43.668968 152.295181,58.916519 151.332916,77.413803 
M73.558380,140.915558 
	C56.076626,138.209198 42.091991,129.089066 30.022907,116.455795 
	C35.650238,129.647781 65.159142,146.013351 76.870384,142.328125 
	C76.658714,142.083267 76.493385,141.729095 76.225975,141.615738 
	C75.621361,141.359451 74.966354,141.222046 73.558380,140.915558 
M15.558404,59.299042 
	C13.243011,70.898361 13.240987,82.353943 17.571903,93.503227 
	C17.571903,81.202042 17.571903,68.900856 17.571903,56.248138 
	C16.669800,56.771866 16.279381,56.865112 16.156038,57.099121 
	C15.929628,57.528679 15.860628,58.041203 15.558404,59.299042 
M120.377441,14.153953 
	C111.299400,8.445024 101.445534,5.313598 89.443352,4.497141 
	C102.177879,9.430075 113.600060,13.854649 126.366859,18.800085 
	C123.893051,16.887938 122.422668,15.751399 120.377441,14.153953 
M113.151199,137.642853 
	C117.833443,134.907288 122.515686,132.171707 127.197929,129.436142 
	C127.016731,129.191360 126.835526,128.946594 126.654327,128.701828 
	C115.419022,133.390549 104.183716,138.079269 92.948402,142.767990 
	C93.060402,143.149368 93.172401,143.530762 93.284401,143.912140 
	C99.675339,141.925735 106.066269,139.939331 113.151199,137.642853 
M23.612141,107.712593 
	C24.971632,106.237564 26.741148,104.934410 27.470232,103.195122 
	C27.728571,102.578827 25.577917,100.129662 24.297983,99.920784 
	C22.991993,99.707657 20.644777,100.867104 20.097702,102.048271 
	C18.939850,104.548157 19.771381,106.875488 23.612141,107.712593 
M127.007706,34.458370 
	C126.665375,33.593510 126.323044,32.728649 126.493805,33.160046 
	C125.056732,34.476444 123.444984,35.952862 121.833237,37.429276 
	C122.702644,36.087391 123.572052,34.745506 124.441460,33.403622 
	C125.019577,35.747456 125.597694,38.091293 126.175812,40.435131 
	C125.317238,39.845680 124.458664,39.256229 123.600082,38.666779 
	C125.315079,37.432610 127.030075,36.198441 128.745071,34.964275 
	C129.221924,35.292351 129.698776,35.620426 130.175629,35.948502 
	C129.318207,35.625813 128.460785,35.303127 127.007706,34.458370 
M32.015335,50.088497 
	C32.050354,49.400646 32.353004,48.265652 32.075668,48.099659 
	C30.602261,47.217762 28.983383,46.578907 27.704725,45.989494 
	C26.875359,47.605080 25.921946,49.462307 25.075621,51.110928 
	C26.707842,51.966732 28.506651,52.909885 30.328451,53.865093 
	C30.648876,52.714001 30.980396,51.523060 32.015335,50.088497 
M130.622162,116.443039 
	C132.228882,117.922432 133.835602,119.401825 135.172867,120.633110 
	C136.296677,118.604355 137.333878,116.731972 138.100021,115.348877 
	C136.182083,114.258492 134.416458,113.254707 132.874817,112.378258 
	C132.355560,113.605469 131.823517,114.862846 130.622162,116.443039 
M73.049507,126.572441 
	C74.052109,125.336327 75.054710,124.100212 76.047173,122.876595 
	C74.839638,121.787384 73.525970,120.602448 72.362869,119.553314 
	C71.027054,120.799370 69.731461,122.007912 68.435867,123.216454 
	C68.988594,122.701324 69.541313,122.186188 70.094040,121.671059 
	C70.869919,123.420326 71.645798,125.169594 73.049507,126.572441 
M81.008026,9.195010 
	C81.489227,6.626000 80.675362,4.644499 77.858971,5.193688 
	C76.836098,5.393145 75.287598,7.981702 75.600098,8.964946 
	C76.444351,11.621324 78.574760,11.555446 81.008026,9.195010 
z"/>
<path fill="#E3E7E7" opacity="1.000000" stroke="none" 
	d="
M84.784050,49.691872 
	C90.877487,46.698299 95.616318,50.169361 100.459473,53.020016 
	C101.869225,53.849789 103.160233,54.881332 104.719009,56.250198 
	C103.926422,58.033806 102.920486,59.387592 101.620789,60.917831 
	C96.405502,66.858177 91.483971,72.622078 86.255478,78.745461 
	C84.624924,76.829277 83.426727,75.266724 82.069229,73.857651 
	C79.127090,70.803741 76.103462,67.828339 73.095535,64.862671 
	C73.077927,64.904510 73.168709,64.903862 73.071686,64.664062 
	C72.670715,64.384781 72.366753,64.345306 71.755005,64.408020 
	C69.572380,66.117607 67.697548,67.725006 65.564774,69.553566 
	C72.583466,77.733124 79.374649,85.647530 86.273651,93.687592 
	C94.187881,84.601723 101.900772,75.747009 109.613663,66.892296 
	C112.470551,69.543747 113.538231,72.168991 109.532837,74.769424 
	C109.516983,74.779724 109.934006,75.456764 110.450684,76.167969 
	C110.806053,76.690063 110.859589,76.866577 110.684799,77.255417 
	C110.676613,79.392181 111.484314,81.473053 111.020477,83.215424 
	C108.236214,93.674393 101.620102,100.879868 90.948029,102.921165 
	C86.676743,103.738152 81.728966,103.182327 77.377022,102.848663 
	C67.939369,102.125092 61.854336,95.262054 58.043972,86.855164 
	C56.754074,84.009224 54.413750,80.602631 58.438095,77.609383 
	C58.912086,77.256836 58.739685,74.827225 58.257271,74.587540 
	C54.326328,72.634499 56.343987,69.821808 57.076675,67.316566 
	C58.932487,60.971123 63.173714,56.148479 68.371017,52.550133 
	C72.662865,49.578671 77.553696,46.534687 83.196426,49.851933 
	C83.127808,49.863483 83.162170,49.728622 83.137527,50.057625 
	C83.521919,50.746712 83.930939,51.106804 84.339966,51.466892 
	C84.496223,50.876087 84.652489,50.285282 84.813126,49.709137 
	C84.817513,49.723797 84.784050,49.691872 84.784050,49.691872 
z"/>
<path fill="#373F59" opacity="1.000000" stroke="none" 
	d="
M110.913116,77.043106 
	C110.859589,76.866577 110.806053,76.690063 110.755417,76.236870 
	C112.364037,75.678474 113.969765,75.396751 115.072197,75.203331 
	C115.901222,71.685776 116.689880,68.339500 117.478539,64.993225 
	C125.717812,81.765862 116.294540,102.784218 98.833336,110.126274 
	C79.825356,118.118713 58.081955,109.608879 50.141701,91.425377 
	C42.612637,74.183510 48.078056,47.785191 76.760765,39.473934 
	C75.460739,33.244106 79.257195,33.042114 84.038429,33.017326 
	C88.824013,32.992512 92.123665,33.676426 91.106224,39.125267 
	C96.202393,41.410366 100.986382,43.555481 106.166145,45.878063 
	C104.731453,47.651901 103.829140,48.767506 103.258110,49.473522 
	C97.209961,47.427177 91.497665,45.494469 85.213737,43.368355 
	C85.035049,45.876476 84.931053,47.336170 84.805557,49.243866 
	C84.784050,49.691872 84.817513,49.723797 84.539429,49.738205 
	C83.894951,49.744617 83.528557,49.736618 83.162170,49.728622 
	C83.162170,49.728622 83.127808,49.863483 83.101166,49.408070 
	C82.961166,47.477531 82.847801,46.002407 82.735588,44.542274 
	C65.400589,44.486176 51.274982,60.981602 52.435356,75.130722 
	C53.969421,75.410210 55.501308,75.692261 57.033199,75.974312 
	C57.023354,76.238876 57.013508,76.503433 57.003666,76.767998 
	C55.378971,77.039078 53.754276,77.310165 52.176273,77.573463 
	C52.424610,95.549973 68.427498,109.531769 85.789352,108.547516 
	C102.605301,107.594200 117.445938,91.648186 115.320633,77.334122 
	C113.867638,77.238182 112.390373,77.140648 110.913116,77.043106 
z"/>
<path fill="#D3403D" opacity="1.000000" stroke="none" 
	d="
M109.754639,66.573395 
	C101.900772,75.747009 94.187881,84.601723 86.273651,93.687592 
	C79.374649,85.647530 72.583466,77.733124 65.564774,69.553566 
	C67.697548,67.725006 69.572380,66.117607 71.897766,64.573334 
	C72.590714,64.820847 72.864182,64.909981 73.168709,64.903862 
	C73.168709,64.903862 73.077927,64.904510 73.087532,65.234436 
	C76.545898,71.395020 80.018234,77.211922 83.433685,83.062027 
	C85.195091,86.079033 86.960281,84.973656 88.380737,82.953781 
	C92.765152,76.719193 97.048035,70.411339 101.249001,64.051773 
	C101.823875,63.181511 101.709702,61.856075 101.914543,60.741379 
	C102.920486,59.387592 103.926422,58.033806 105.047623,56.382729 
	C107.517136,53.566994 109.871384,51.048538 112.368019,48.377766 
	C114.893303,50.519234 117.149002,52.432083 119.551781,54.469666 
	C116.204872,58.554386 113.050247,62.404434 109.754639,66.573395 
z"/>
<path fill="#D95856" opacity="1.000000" stroke="none" 
	d="
M151.371384,76.927971 
	C152.295181,58.916519 146.129028,43.668968 135.324646,29.409029 
	C141.475540,30.709019 149.896774,46.151596 152.842911,61.148453 
	C156.145813,77.961319 152.982712,93.722275 144.427887,108.354836 
	C146.729568,98.041161 149.031235,87.727478 151.371384,76.927971 
z"/>
<path fill="#D85451" opacity="1.000000" stroke="none" 
	d="
M73.945114,140.975922 
	C74.966354,141.222046 75.621361,141.359451 76.225975,141.615738 
	C76.493385,141.729095 76.658714,142.083267 76.866959,142.331085 
	C65.159142,146.013351 35.650238,129.647781 30.022907,116.455795 
	C42.091991,129.089066 56.076626,138.209198 73.945114,140.975922 
z"/>
<path fill="#D85653" opacity="1.000000" stroke="none" 
	d="
M15.642204,58.909088 
	C15.860628,58.041203 15.929628,57.528679 16.156038,57.099121 
	C16.279381,56.865112 16.669800,56.771866 17.571903,56.248138 
	C17.571903,68.900856 17.571903,81.202042 17.571903,93.503227 
	C13.240987,82.353943 13.243011,70.898361 15.642204,58.909088 
z"/>
<path fill="#D95856" opacity="1.000000" stroke="none" 
	d="
M120.664864,14.384407 
	C122.422668,15.751399 123.893051,16.887938 126.366859,18.800085 
	C113.600060,13.854649 102.177879,9.430075 89.443352,4.497141 
	C101.445534,5.313598 111.299400,8.445024 120.664864,14.384407 
z"/>
<path fill="#D95855" opacity="1.000000" stroke="none" 
	d="
M112.804199,137.797882 
	C106.066269,139.939331 99.675339,141.925735 93.284401,143.912140 
	C93.172401,143.530762 93.060402,143.149368 92.948402,142.767990 
	C104.183716,138.079269 115.419022,133.390549 126.654327,128.701828 
	C126.835526,128.946594 127.016731,129.191360 127.197929,129.436142 
	C122.515686,132.171707 117.833443,134.907288 112.804199,137.797882 
z"/>
<path fill="#D85552" opacity="1.000000" stroke="none" 
	d="
M47.017010,17.038013 
	C37.690331,23.995604 29.506184,32.041698 23.186049,41.913418 
	C27.424341,30.708551 35.247864,22.551167 45.627434,16.070011 
	C46.490330,16.415693 46.753670,16.726852 47.017010,17.038013 
z"/>
<path fill="#DA5F5D" opacity="1.000000" stroke="none" 
	d="
M23.251656,107.687866 
	C19.771381,106.875488 18.939850,104.548157 20.097702,102.048271 
	C20.644777,100.867104 22.991993,99.707657 24.297983,99.920784 
	C25.577917,100.129662 27.728571,102.578827 27.470232,103.195122 
	C26.741148,104.934410 24.971632,106.237564 23.251656,107.687866 
z"/>
<path fill="#D95856" opacity="1.000000" stroke="none" 
	d="
M47.362171,16.940731 
	C46.753670,16.726852 46.490330,16.415693 45.946175,15.972260 
	C51.229961,11.721370 57.308609,8.793529 63.931683,7.126837 
	C64.161583,7.585992 64.391479,8.045148 64.621376,8.504303 
	C58.983360,11.284019 53.345348,14.063735 47.362171,16.940731 
z"/>
<path fill="#DC6866" opacity="1.000000" stroke="none" 
	d="
M127.305534,34.719406 
	C128.460785,35.303127 129.318207,35.625813 130.175629,35.948502 
	C129.698776,35.620426 129.221924,35.292351 128.745071,34.964275 
	C127.030075,36.198441 125.315079,37.432610 123.600082,38.666779 
	C124.458664,39.256229 125.317238,39.845680 126.175812,40.435131 
	C125.597694,38.091293 125.019577,35.747456 124.441460,33.403622 
	C123.572052,34.745506 122.702644,36.087391 121.833237,37.429276 
	C123.444984,35.952862 125.056732,34.476444 126.493805,33.160046 
	C126.323044,32.728649 126.665375,33.593510 127.305534,34.719406 
z"/>
<path fill="#D85754" opacity="1.000000" stroke="none" 
	d="
M31.663624,50.210304 
	C30.980396,51.523060 30.648876,52.714001 30.328451,53.865093 
	C28.506651,52.909885 26.707842,51.966732 25.075621,51.110928 
	C25.921946,49.462307 26.875359,47.605080 27.704725,45.989494 
	C28.983383,46.578907 30.602261,47.217762 32.075668,48.099659 
	C32.353004,48.265652 32.050354,49.400646 31.663624,50.210304 
z"/>
<path fill="#D85451" opacity="1.000000" stroke="none" 
	d="
M130.956818,116.281631 
	C131.823517,114.862846 132.355560,113.605469 132.874817,112.378258 
	C134.416458,113.254707 136.182083,114.258492 138.100021,115.348877 
	C137.333878,116.731972 136.296677,118.604355 135.172867,120.633110 
	C133.835602,119.401825 132.228882,117.922432 130.956818,116.281631 
z"/>
<path fill="#DA5C5A" opacity="1.000000" stroke="none" 
	d="
M72.735596,126.745651 
	C71.645798,125.169594 70.869919,123.420326 70.094040,121.671059 
	C69.541313,122.186188 68.988594,122.701324 68.435867,123.216454 
	C69.731461,122.007912 71.027054,120.799370 72.362869,119.553314 
	C73.525970,120.602448 74.839638,121.787384 76.047173,122.876595 
	C75.054710,124.100212 74.052109,125.336327 72.735596,126.745651 
z"/>
<path fill="#D64D4A" opacity="1.000000" stroke="none" 
	d="
M80.827255,9.552145 
	C78.574760,11.555446 76.444351,11.621324 75.600098,8.964946 
	C75.287598,7.981702 76.836098,5.393145 77.858971,5.193688 
	C80.675362,4.644499 81.489227,6.626000 80.827255,9.552145 
z"/>
<path fill="#FEFDFD" opacity="1.000000" stroke="none" 
	d="
M110.684799,77.255417 
	C112.390373,77.140648 113.867638,77.238182 115.320633,77.334122 
	C117.445938,91.648186 102.605301,107.594200 85.789352,108.547516 
	C68.427498,109.531769 52.424610,95.549973 52.176273,77.573463 
	C53.754276,77.310165 55.378971,77.039078 57.003666,76.767998 
	C57.013508,76.503433 57.023354,76.238876 57.033199,75.974312 
	C55.501308,75.692261 53.969421,75.410210 52.435356,75.130722 
	C51.274982,60.981602 65.400589,44.486176 82.735588,44.542274 
	C82.847801,46.002407 82.961166,47.477531 83.169792,49.396519 
	C77.553696,46.534687 72.662865,49.578671 68.371017,52.550133 
	C63.173714,56.148479 58.932487,60.971123 57.076675,67.316566 
	C56.343987,69.821808 54.326328,72.634499 58.257271,74.587540 
	C58.739685,74.827225 58.912086,77.256836 58.438095,77.609383 
	C54.413750,80.602631 56.754074,84.009224 58.043972,86.855164 
	C61.854336,95.262054 67.939369,102.125092 77.377022,102.848663 
	C81.728966,103.182327 86.676743,103.738152 90.948029,102.921165 
	C101.620102,100.879868 108.236214,93.674393 111.020477,83.215424 
	C111.484314,81.473053 110.676613,79.392181 110.684799,77.255417 
z"/>
<path fill="#C83938" opacity="1.000000" stroke="none" 
	d="
M101.620789,60.917831 
	C101.709702,61.856075 101.823875,63.181511 101.249001,64.051773 
	C97.048035,70.411339 92.765152,76.719193 88.380737,82.953781 
	C86.960281,84.973656 85.195091,86.079033 83.433685,83.062027 
	C80.018234,77.211922 76.545898,71.395020 73.105148,65.192596 
	C76.103462,67.828339 79.127090,70.803741 82.069229,73.857651 
	C83.426727,75.266724 84.624924,76.829277 86.255478,78.745461 
	C91.483971,72.622078 96.405502,66.858177 101.620789,60.917831 
z"/>
<path fill="#FEFDFD" opacity="1.000000" stroke="none" 
	d="
M83.137527,50.057621 
	C83.528557,49.736618 83.894951,49.744617 84.535042,49.723545 
	C84.652489,50.285282 84.496223,50.876087 84.339966,51.466892 
	C83.930939,51.106804 83.521919,50.746712 83.137527,50.057621 
z"/>
<path fill="#C83938" opacity="1.000000" stroke="none" 
	d="
M73.071686,64.664062 
	C72.864182,64.909981 72.590714,64.820847 72.205559,64.471146 
	C72.366753,64.345306 72.670715,64.384781 73.071686,64.664062 
z"/>
</svg>