<svg version="1.1" id="Layer_1" xmlns="http://www.w3.org/2000/svg" xmlns:xlink="http://www.w3.org/1999/xlink" x="0px" y="0px"
	 width="100%" viewBox="0 0 152 147" enable-background="new 0 0 152 147" xml:space="preserve">
<path fill="#FEFDFD" opacity="1.000000" stroke="none" 
	d="
M153.000000,58.000000 
	C153.000000,88.333336 153.000000,118.166664 153.000000,148.000000 
	C102.333336,148.000000 51.666668,148.000000 1.000000,148.000000 
	C1.000000,99.000000 1.000000,50.000000 1.000000,1.000000 
	C51.666668,1.000000 102.333336,1.000000 153.000000,1.000000 
	C153.000000,19.833334 153.000000,38.666668 153.000000,58.000000 
M41.028503,18.035448 
	C31.253471,24.555218 23.442900,32.723404 19.175508,43.903763 
	C25.506090,34.041058 33.690327,25.995262 43.703968,18.844875 
	C49.341633,16.059397 54.979294,13.273920 61.837570,9.885359 
	C55.852402,9.669864 48.447205,12.864317 41.028503,18.035448 
M117.987961,39.496433 
	C119.222923,40.577721 120.457886,41.659008 121.638229,42.692478 
	C122.973236,41.275688 124.474373,39.682583 125.832176,38.241596 
	C124.313248,36.823059 122.814095,35.422981 121.388130,34.091263 
	C119.877502,35.733841 118.374054,37.368610 116.070831,39.007744 
	C111.918327,38.530365 107.765831,38.052986 103.682823,37.583595 
	C108.602112,45.642506 112.948288,52.762527 117.711716,60.566105 
	C118.773430,57.763935 120.953346,54.747566 120.751419,51.900097 
	C120.450714,47.659550 118.468361,43.538250 117.987961,39.496433 
M65.875771,106.920692 
	C65.414253,111.521156 67.766335,113.543549 72.118179,113.721741 
	C76.235146,113.890320 80.374046,114.384544 84.463905,114.121956 
	C88.953575,113.833702 94.045410,115.068459 97.367645,110.459366 
	C101.455353,112.218239 103.886978,109.608154 106.714096,107.025780 
	C104.734818,105.228401 102.934097,103.593163 100.971542,101.250877 
	C99.512962,98.038498 97.548798,97.839981 94.207214,99.044586 
	C82.156593,103.388718 70.717674,102.119156 60.376167,94.059486 
	C59.519302,93.391685 58.497875,92.935043 56.326172,91.660118 
	C56.326172,96.440392 56.326172,100.204880 56.158566,104.730736 
	C56.067707,110.762749 61.196136,110.092888 64.791481,112.114166 
	C64.990356,109.667686 65.134407,107.895638 65.506836,106.154121 
	C65.506836,106.154121 65.732201,106.106140 65.875771,106.920692 
M49.877663,63.385349 
	C49.003746,76.205711 53.389256,86.692406 64.348160,93.677040 
	C76.920990,101.690285 89.497238,100.400269 101.756142,92.084976 
	C107.013687,97.719322 112.102448,103.187881 117.210121,108.638718 
	C119.115692,110.672302 121.235809,112.684471 123.906677,109.982140 
	C126.547729,107.309998 123.962257,105.500931 122.336945,103.732384 
	C117.193413,98.135544 111.992729,92.591217 106.884911,87.102615 
	C119.860565,68.333641 112.858994,48.427109 98.124207,39.424080 
	C78.975739,27.724274 53.386471,39.195538 49.877663,63.385349 
M38.889118,68.141861 
	C31.281025,72.087646 27.005581,82.656578 30.322941,90.775146 
	C31.076994,92.620537 34.007114,93.878723 36.201164,94.681252 
	C37.047882,94.990959 38.633194,93.281395 39.763088,92.567009 
	C40.634048,97.078819 45.167522,98.913109 52.933182,97.192451 
	C53.180210,94.101646 54.723450,90.194801 53.452400,87.752708 
	C49.910999,80.948532 46.437134,74.318390 46.851379,65.706779 
	C43.952187,66.612656 41.791924,67.287643 38.889118,68.141861 
M130.547760,73.191208 
	C127.207497,68.956558 122.883728,66.715302 117.530251,66.493156 
	C116.040695,71.770683 114.554184,76.792633 113.265076,81.864754 
	C113.068451,82.638428 113.559944,83.829376 114.118935,84.510933 
	C116.597580,87.533066 119.216881,90.439850 122.090103,93.738289 
	C123.499237,91.616005 124.056328,90.776970 124.713112,89.787796 
	C125.005447,91.674385 125.245209,93.221672 125.734550,96.379601 
	C128.746872,93.850304 132.556580,92.154785 132.633911,90.303360 
	C132.861649,84.851570 131.609711,79.337975 130.547760,73.191208 
M138.561447,42.063717 
	C150.846359,64.555679 150.071854,87.301575 139.240952,110.243019 
	C156.040100,97.206215 150.589676,39.202347 131.144638,30.829355 
	C133.928116,35.025764 136.053543,38.230087 138.561447,42.063717 
M53.814259,46.354561 
	C55.855423,43.879074 57.896587,41.403591 60.037746,38.806839 
	C52.590775,35.781162 45.975182,38.868145 42.837189,46.352913 
	C40.626045,51.626949 42.728901,57.502693 46.912983,59.134800 
	C49.103176,55.033512 51.258671,50.997196 53.814259,46.354561 
M47.929859,135.747437 
	C40.560352,130.128799 33.190842,124.510178 25.702999,118.801331 
	C31.130192,131.205612 60.735802,147.948700 72.629463,144.448196 
	C64.746979,141.689362 56.679844,138.865906 47.929859,135.747437 
M14.109555,95.292343 
	C14.286662,94.532906 14.757566,93.703987 14.596838,93.024452 
	C12.155643,82.703415 11.563684,72.369339 13.942202,61.941170 
	C14.182225,60.888840 13.749630,59.683094 13.629181,58.548542 
	C13.168429,58.527206 12.707678,58.505871 12.246927,58.484535 
	C11.652604,61.624374 10.809054,64.740753 10.510786,67.908470 
	C9.623272,77.334160 9.402556,86.731270 14.109555,95.292343 
M92.504539,7.140977 
	C90.554214,6.927378 88.603882,6.713779 86.653557,6.500180 
	C86.707321,6.657822 86.761086,6.815464 86.814857,6.973106 
	C98.209457,11.420244 109.604057,15.867382 122.026276,20.715580 
	C113.299278,12.735856 103.560883,9.458470 92.504539,7.140977 
M88.794167,144.570267 
	C99.383087,145.040421 108.312050,140.348312 117.099716,135.340378 
	C119.210999,134.137192 121.022804,132.408524 122.972336,130.921524 
	C122.673012,130.492355 122.373680,130.063187 122.074356,129.634018 
	C119.763351,131.037903 117.592140,132.790710 115.116096,133.782654 
	C106.401237,137.273941 97.581703,140.503952 88.794167,144.570267 
M22.319118,102.408379 
	C19.668756,101.333282 16.927446,100.848038 15.995865,104.327362 
	C15.631948,105.686539 16.432085,107.982094 17.511253,108.908569 
	C18.401024,109.672432 21.556795,109.544464 21.836721,108.942024 
	C22.663000,107.163750 22.560665,104.953987 22.319118,102.408379 
M25.310574,49.487202 
	C24.821344,48.787899 24.332117,48.088596 23.940632,47.529007 
	C22.850658,49.642593 21.895023,51.495682 21.043001,53.147850 
	C22.716129,54.013264 24.522158,54.947414 26.000587,55.712124 
	C27.071522,53.940105 28.116760,52.210602 29.316914,50.224773 
	C28.076023,50.133759 26.971088,50.052715 25.310574,49.487202 
M134.068695,118.153946 
	C134.240265,117.907890 134.441605,117.675980 134.568542,117.408730 
	C134.618500,117.303551 134.544434,117.024864 134.455475,116.985168 
	C132.531845,116.126740 130.598083,115.290962 129.104034,114.641197 
	C128.236023,116.278259 127.280655,118.080063 126.579872,119.401726 
	C128.315567,120.491852 129.999756,121.549622 131.430679,122.448326 
	C132.106216,121.149826 132.790543,119.834480 134.068695,118.153946 
M72.199501,125.421242 
	C70.495750,124.460129 68.792000,123.499016 67.088257,122.537903 
	C67.502640,122.224869 67.917023,121.911835 68.331413,121.598801 
	C67.025726,122.804581 65.720039,124.010368 64.414360,125.216156 
	C65.119034,124.562546 65.823708,123.908936 66.528381,123.255325 
	C67.489807,124.814781 68.451225,126.374237 69.296188,127.744781 
	C69.394791,127.672035 70.571091,126.804237 72.199501,125.421242 
M76.026283,7.521653 
	C73.549797,6.329355 71.576294,7.058479 71.410851,9.720005 
	C71.347900,10.732601 73.554962,12.858080 74.602486,12.780871 
	C77.442680,12.571531 77.674934,10.406487 76.026283,7.521653 
z"/>
<path fill="#363D57" opacity="1.000000" stroke="none" 
	d="
M49.911484,62.967270 
	C53.386471,39.195538 78.975739,27.724274 98.124207,39.424080 
	C112.858994,48.427109 119.860565,68.333641 106.884911,87.102615 
	C111.992729,92.591217 117.193413,98.135544 122.336945,103.732384 
	C123.962257,105.500931 126.547729,107.309998 123.906677,109.982140 
	C121.235809,112.684471 119.115692,110.672302 117.210121,108.638718 
	C112.102448,103.187881 107.013687,97.719322 101.756142,92.084976 
	C89.497238,100.400269 76.920990,101.690285 64.348160,93.677040 
	C53.389256,86.692406 49.003746,76.205711 49.911484,62.967270 
M78.973610,92.737526 
	C80.135864,92.765739 81.301102,92.862228 82.459908,92.811584 
	C93.757957,92.317833 103.431313,84.910187 106.554344,74.389519 
	C109.761246,63.586311 105.796516,51.970699 96.768120,45.718494 
	C87.302933,39.163818 74.933289,39.176495 66.098305,46.095806 
	C57.623871,52.732738 54.184555,61.719498 56.364578,72.161140 
	C58.786942,83.763527 66.571251,90.376717 78.973610,92.737526 
z"/>
<path fill="#E4E9E9" opacity="1.000000" stroke="none" 
	d="
M39.260387,68.052246 
	C41.791924,67.287643 43.952187,66.612656 46.851379,65.706779 
	C46.437134,74.318390 49.910999,80.948532 53.452400,87.752708 
	C54.723450,90.194801 53.180210,94.101646 52.933182,97.192451 
	C45.167522,98.913109 40.634048,97.078819 39.763088,92.567009 
	C38.633194,93.281395 37.047882,94.990959 36.201164,94.681252 
	C34.007114,93.878723 31.076994,92.620537 30.322941,90.775146 
	C27.005581,82.656578 31.281025,72.087646 39.260387,68.052246 
z"/>
<path fill="#E4E9E9" opacity="1.000000" stroke="none" 
	d="
M130.742355,73.519890 
	C131.609711,79.337975 132.861649,84.851570 132.633911,90.303360 
	C132.556580,92.154785 128.746872,93.850304 125.734550,96.379601 
	C125.245209,93.221672 125.005447,91.674385 124.713112,89.787796 
	C124.056328,90.776970 123.499237,91.616005 122.090103,93.738289 
	C119.216881,90.439850 116.597580,87.533066 114.118935,84.510933 
	C113.559944,83.829376 113.068451,82.638428 113.265076,81.864754 
	C114.554184,76.792633 116.040695,71.770683 117.530251,66.493156 
	C122.883728,66.715302 127.207497,68.956558 130.742355,73.519890 
z"/>
<path fill="#CA3A39" opacity="1.000000" stroke="none" 
	d="
M56.326172,103.969360 
	C56.326172,100.204880 56.326172,96.440392 56.326172,91.660118 
	C58.497875,92.935043 59.519302,93.391685 60.376167,94.059486 
	C70.717674,102.119156 82.156593,103.388718 94.207214,99.044586 
	C97.548798,97.839981 99.512962,98.038498 100.674484,101.651306 
	C89.308228,107.498093 77.667366,108.059532 65.732201,106.106140 
	C65.732201,106.106140 65.506836,106.154121 65.002319,106.080055 
	C61.773926,105.327118 59.050049,104.648239 56.326172,103.969360 
z"/>
<path fill="#D33F3C" opacity="1.000000" stroke="none" 
	d="
M65.803986,106.513412 
	C77.667366,108.059532 89.308228,107.498093 100.755402,102.004829 
	C102.934097,103.593163 104.734818,105.228401 106.714096,107.025780 
	C103.886978,109.608154 101.455353,112.218239 97.367645,110.459366 
	C94.045410,115.068459 88.953575,113.833702 84.463905,114.121956 
	C80.374046,114.384544 76.235146,113.890320 72.118179,113.721741 
	C67.766335,113.543549 65.414253,111.521156 65.803986,106.513412 
z"/>
<path fill="#D85654" opacity="1.000000" stroke="none" 
	d="
M138.370209,41.749065 
	C136.053543,38.230087 133.928116,35.025764 131.144638,30.829355 
	C150.589676,39.202347 156.040100,97.206215 139.240952,110.243019 
	C150.071854,87.301575 150.846359,64.555679 138.370209,41.749065 
z"/>
<path fill="#E4E9E9" opacity="1.000000" stroke="none" 
	d="
M117.201584,39.366207 
	C118.468361,43.538250 120.450714,47.659550 120.751419,51.900097 
	C120.953346,54.747566 118.773430,57.763935 117.711716,60.566105 
	C112.948288,52.762527 108.602112,45.642506 103.682823,37.583595 
	C107.765831,38.052986 111.918327,38.530365 116.586716,39.065811 
	C117.102600,39.123878 117.201584,39.366207 117.201584,39.366207 
z"/>
<path fill="#E4E9E9" opacity="1.000000" stroke="none" 
	d="
M53.614212,46.657722 
	C51.258671,50.997196 49.103176,55.033512 46.912983,59.134800 
	C42.728901,57.502693 40.626045,51.626949 42.837189,46.352913 
	C45.975182,38.868145 52.590775,35.781162 60.037746,38.806839 
	C57.896587,41.403591 55.855423,43.879074 53.614212,46.657722 
z"/>
<path fill="#D85451" opacity="1.000000" stroke="none" 
	d="
M48.271282,135.894943 
	C56.679844,138.865906 64.746979,141.689362 72.629463,144.448196 
	C60.735802,147.948700 31.130192,131.205612 25.702999,118.801331 
	C33.190842,124.510178 40.560352,130.128799 48.271282,135.894943 
z"/>
<path fill="#D85653" opacity="1.000000" stroke="none" 
	d="
M13.781956,95.471672 
	C9.402556,86.731270 9.623272,77.334160 10.510786,67.908470 
	C10.809054,64.740753 11.652604,61.624374 12.246927,58.484535 
	C12.707678,58.505871 13.168429,58.527206 13.629181,58.548542 
	C13.749630,59.683094 14.182225,60.888840 13.942202,61.941170 
	C11.563684,72.369339 12.155643,82.703415 14.596838,93.024452 
	C14.757566,93.703987 14.286662,94.532906 13.781956,95.471672 
z"/>
<path fill="#D95856" opacity="1.000000" stroke="none" 
	d="
M92.902191,7.211021 
	C103.560883,9.458470 113.299278,12.735856 122.026276,20.715580 
	C109.604057,15.867382 98.209457,11.420244 86.814857,6.973106 
	C86.761086,6.815464 86.707321,6.657822 86.653557,6.500180 
	C88.603882,6.713779 90.554214,6.927378 92.902191,7.211021 
z"/>
<path fill="#D95855" opacity="1.000000" stroke="none" 
	d="
M88.798027,144.201691 
	C97.581703,140.503952 106.401237,137.273941 115.116096,133.782654 
	C117.592140,132.790710 119.763351,131.037903 122.074356,129.634018 
	C122.373680,130.063187 122.673012,130.492355 122.972336,130.921524 
	C121.022804,132.408524 119.210999,134.137192 117.099716,135.340378 
	C108.312050,140.348312 99.383087,145.040421 88.798027,144.201691 
z"/>
<path fill="#D85552" opacity="1.000000" stroke="none" 
	d="
M43.016922,19.037775 
	C33.690327,25.995262 25.506090,34.041058 19.175508,43.903763 
	C23.442900,32.723404 31.253471,24.555218 41.627808,18.070023 
	C42.490383,18.415655 42.753651,18.726715 43.016922,19.037775 
z"/>
<path fill="#DA5F5D" opacity="1.000000" stroke="none" 
	d="
M22.570398,102.660721 
	C22.560665,104.953987 22.663000,107.163750 21.836721,108.942024 
	C21.556795,109.544464 18.401024,109.672432 17.511253,108.908569 
	C16.432085,107.982094 15.631948,105.686539 15.995865,104.327362 
	C16.927446,100.848038 19.668756,101.333282 22.570398,102.660721 
z"/>
<path fill="#D95856" opacity="1.000000" stroke="none" 
	d="
M43.360443,18.941326 
	C42.753651,18.726715 42.490383,18.415655 41.946392,17.972343 
	C48.447205,12.864317 55.852402,9.669864 61.837570,9.885359 
	C54.979294,13.273920 49.341633,16.059397 43.360443,18.941326 
z"/>
<path fill="#D44946" opacity="1.000000" stroke="none" 
	d="
M56.242371,104.350052 
	C59.050049,104.648239 61.773926,105.327118 64.888130,106.064789 
	C65.134407,107.895638 64.990356,109.667686 64.791481,112.114166 
	C61.196136,110.092888 56.067707,110.762749 56.242371,104.350052 
z"/>
<path fill="#DC6866" opacity="1.000000" stroke="none" 
	d="
M117.594772,39.431320 
	C117.201584,39.366207 117.102600,39.123878 116.986603,39.063629 
	C118.374054,37.368610 119.877502,35.733841 121.388130,34.091263 
	C122.814095,35.422981 124.313248,36.823059 125.832176,38.241596 
	C124.474373,39.682583 122.973236,41.275688 121.638229,42.692478 
	C120.457886,41.659008 119.222923,40.577721 117.594772,39.431320 
z"/>
<path fill="#D85754" opacity="1.000000" stroke="none" 
	d="
M25.588364,49.729435 
	C26.971088,50.052715 28.076023,50.133759 29.316914,50.224773 
	C28.116760,52.210602 27.071522,53.940105 26.000587,55.712124 
	C24.522158,54.947414 22.716129,54.013264 21.043001,53.147850 
	C21.895023,51.495682 22.850658,49.642593 23.940632,47.529007 
	C24.332117,48.088596 24.821344,48.787899 25.588364,49.729435 
z"/>
<path fill="#D85451" opacity="1.000000" stroke="none" 
	d="
M133.771774,118.336548 
	C132.790543,119.834480 132.106216,121.149826 131.430679,122.448326 
	C129.999756,121.549622 128.315567,120.491852 126.579872,119.401726 
	C127.280655,118.080063 128.236023,116.278259 129.104034,114.641197 
	C130.598083,115.290962 132.531845,116.126740 134.455475,116.985168 
	C134.544434,117.024864 134.618500,117.303551 134.568542,117.408730 
	C134.441605,117.675980 134.240265,117.907890 133.771774,118.336548 
z"/>
<path fill="#DA5C5A" opacity="1.000000" stroke="none" 
	d="
M71.973450,125.678841 
	C70.571091,126.804237 69.394791,127.672035 69.296188,127.744781 
	C68.451225,126.374237 67.489807,124.814781 66.528381,123.255325 
	C65.823708,123.908936 65.119034,124.562546 64.414360,125.216156 
	C65.720039,124.010368 67.025726,122.804581 68.331413,121.598801 
	C67.917023,121.911835 67.502640,122.224869 67.088257,122.537903 
	C68.792000,123.499016 70.495750,124.460129 71.973450,125.678841 
z"/>
<path fill="#D64D4A" opacity="1.000000" stroke="none" 
	d="
M76.331818,7.794329 
	C77.674934,10.406487 77.442680,12.571531 74.602486,12.780871 
	C73.554962,12.858080 71.347900,10.732601 71.410851,9.720005 
	C71.576294,7.058479 73.549797,6.329355 76.331818,7.794329 
z"/>
<path fill="#FBFAFA" opacity="1.000000" stroke="none" 
	d="
M78.558800,92.665634 
	C66.571251,90.376717 58.786942,83.763527 56.364578,72.161140 
	C54.184555,61.719498 57.623871,52.732738 66.098305,46.095806 
	C74.933289,39.176495 87.302933,39.163818 96.768120,45.718494 
	C105.796516,51.970699 109.761246,63.586311 106.554344,74.389519 
	C103.431313,84.910187 93.757957,92.317833 82.459908,92.811584 
	C81.301102,92.862228 80.135864,92.765739 78.558800,92.665634 
M88.502106,78.321640 
	C93.634697,75.005753 95.913414,70.278290 94.725410,64.303986 
	C93.676300,59.028088 90.373924,55.414639 85.067001,54.030624 
	C79.286491,52.523102 73.462379,54.902382 70.399963,59.801941 
	C67.339828,64.697853 67.675674,70.608559 71.270012,75.114052 
	C75.246826,80.098984 80.882660,81.332695 88.502106,78.321640 
M77.160965,89.820366 
	C87.376549,90.488388 92.283760,88.998268 96.345238,83.994881 
	C90.987930,81.759018 70.853035,82.038712 66.049164,84.946693 
	C69.833031,86.666710 73.084534,88.144737 77.160965,89.820366 
z"/>
<path fill="#D4403D" opacity="1.000000" stroke="none" 
	d="
M88.173615,78.532028 
	C80.882660,81.332695 75.246826,80.098984 71.270012,75.114052 
	C67.675674,70.608559 67.339828,64.697853 70.399963,59.801941 
	C73.462379,54.902382 79.286491,52.523102 85.067001,54.030624 
	C90.373924,55.414639 93.676300,59.028088 94.725410,64.303986 
	C95.913414,70.278290 93.634697,75.005753 88.173615,78.532028 
z"/>
<path fill="#D34543" opacity="1.000000" stroke="none" 
	d="
M76.748505,89.721558 
	C73.084534,88.144737 69.833031,86.666710 66.049164,84.946693 
	C70.853035,82.038712 90.987930,81.759018 96.345238,83.994881 
	C92.283760,88.998268 87.376549,90.488388 76.748505,89.721558 
z"/>
</svg>