<svg width="20" height="21" viewBox="0 0 20 21" fill="none" xmlns="http://www.w3.org/2000/svg">
<path d="M20 10.3809C20 4.85886 15.522 0.380859 10 0.380859C4.478 0.380859 0 4.85886 0 10.3809C0 15.9029 4.478 20.3809 10 20.3809C10.0587 20.3809 10.1172 20.3796 10.1758 20.3786V12.594H8.02734V10.0902H10.1758V8.24768C10.1758 6.11084 11.4803 4.94781 13.3864 4.94781C14.2992 4.94781 15.0838 5.01587 15.3125 5.04623V7.27951H13.9981C12.9611 7.27951 12.7603 7.77237 12.7603 8.49548V10.0902H15.2399L14.9167 12.594H12.7603V19.9945C16.9402 18.7962 20 14.9454 20 10.3809Z" fill="#F5F5F5"/>
</svg>
