<svg width="20" height="21" viewBox="0 0 20 21" fill="none" xmlns="http://www.w3.org/2000/svg">
<path d="M10 0.380859C4.478 0.380859 0 4.85886 0 10.3809C0 15.9029 4.478 20.3809 10 20.3809C15.522 20.3809 20 15.9029 20 10.3809C20 4.85886 15.522 0.380859 10 0.380859ZM15.7076 12.7483C15.6798 13.3595 15.5826 13.7769 15.4407 14.1422C15.1424 14.9135 14.5326 15.5232 13.7613 15.8215C13.3961 15.9634 12.9787 16.0605 12.3676 16.0884C11.7552 16.1163 11.5596 16.123 10.0002 16.123C8.44055 16.123 8.24509 16.1163 7.6326 16.0884C7.02148 16.0605 6.604 15.9634 6.23886 15.8215C5.85556 15.6773 5.50858 15.4514 5.22171 15.1591C4.92966 14.8724 4.70367 14.5253 4.55948 14.1422C4.41757 13.777 4.32037 13.3595 4.2926 12.7484C4.26437 12.1359 4.25781 11.9403 4.25781 10.3809C4.25781 8.82141 4.26437 8.62579 4.29245 8.01346C4.32022 7.40219 4.41727 6.98486 4.55917 6.61957C4.70337 6.23642 4.9295 5.88928 5.22171 5.60257C5.50842 5.31036 5.85556 5.08438 6.23871 4.94019C6.604 4.79828 7.02133 4.70123 7.6326 4.67331C8.24493 4.64539 8.44055 4.63867 10 4.63867C11.5594 4.63867 11.7551 4.64539 12.3674 4.67346C12.9787 4.70123 13.396 4.79828 13.7613 4.94003C14.1444 5.08423 14.4916 5.31036 14.7784 5.60257C15.0705 5.88943 15.2966 6.23642 15.4407 6.61957C15.5827 6.98486 15.6798 7.40219 15.7077 8.01346C15.7356 8.62579 15.7422 8.82141 15.7422 10.3809C15.7422 11.9403 15.7356 12.1359 15.7076 12.7483V12.7483Z" fill="#F5F5F5"/>
</svg>
