<svg width="20" height="21" viewBox="0 0 20 21" fill="none" xmlns="http://www.w3.org/2000/svg">
<g clip-path="url(#clip0_865_444)">
<path d="M10 0.380859C4.478 0.380859 0 4.85886 0 10.3809C0 15.9029 4.478 20.3809 10 20.3809C15.522 20.3809 20 15.9029 20 10.3809C20 4.85886 15.522 0.380859 10 0.380859ZM7.09412 15.498H4.65866V8.17093H7.09412V15.498ZM5.87646 7.17041H5.8606C5.04333 7.17041 4.51477 6.60782 4.51477 5.90469C4.51477 5.1857 5.05951 4.63867 5.89264 4.63867C6.72577 4.63867 7.23846 5.1857 7.25433 5.90469C7.25433 6.60782 6.72577 7.17041 5.87646 7.17041ZM15.8759 15.498H13.4407V11.5782C13.4407 10.5931 13.0881 9.92126 12.2069 9.92126C11.5341 9.92126 11.1334 10.3745 10.9573 10.8119C10.8929 10.9685 10.8772 11.1873 10.8772 11.4062V15.498H8.44193C8.44193 15.498 8.47382 8.85834 8.44193 8.17093H10.8772V9.20837C11.2009 8.70911 11.7799 7.99896 13.0721 7.99896C14.6744 7.99896 15.8759 9.04617 15.8759 11.2967V15.498Z" fill="#F5F5F5"/>
</g>
<defs>
<clipPath id="clip0_865_444">
<rect width="20" height="20" fill="white" transform="translate(0 0.380859)"/>
</clipPath>
</defs>
</svg>
