<svg width="20" height="21" viewBox="0 0 20 21" fill="none" xmlns="http://www.w3.org/2000/svg">
<path d="M10 0.380859C4.478 0.380859 0 4.85886 0 10.3809C0 15.9029 4.478 20.3809 10 20.3809C15.522 20.3809 20 15.9029 20 10.3809C20 4.85886 15.522 0.380859 10 0.380859ZM14.5659 8.1778C14.5703 8.27621 14.5724 8.37509 14.5724 8.47443C14.5724 11.5074 12.2638 15.0049 8.04184 15.005H8.04199H8.04184C6.74561 15.005 5.5394 14.6251 4.52362 13.974C4.70322 13.9952 4.88602 14.0057 5.07111 14.0057C6.14655 14.0057 7.13623 13.6389 7.92191 13.0232C6.91711 13.0046 6.06995 12.341 5.77759 11.429C5.91751 11.4558 6.0614 11.4705 6.20895 11.4705C6.41846 11.4705 6.6214 11.4423 6.81427 11.3896C5.76401 11.1794 4.97284 10.2512 4.97284 9.13971C4.97284 9.12933 4.97284 9.12003 4.97314 9.11041C5.28244 9.28238 5.63614 9.38583 6.01273 9.39743C5.39642 8.98621 4.9913 8.28323 4.9913 7.48688C4.9913 7.06635 5.10498 6.67236 5.30212 6.33316C6.43402 7.72202 8.12561 8.63541 10.0333 8.73138C9.9939 8.56323 9.9736 8.38806 9.9736 8.20801C9.9736 6.94092 11.0016 5.91293 12.2691 5.91293C12.9294 5.91293 13.5257 6.19202 13.9445 6.63818C14.4675 6.53503 14.9585 6.34399 15.4021 6.08109C15.2304 6.61682 14.8666 7.06635 14.3927 7.35062C14.857 7.29507 15.2995 7.17194 15.7108 6.98914C15.4036 7.44949 15.014 7.85385 14.5659 8.1778Z" fill="#F5F5F5"/>
</svg>
